<svg width="48" height="48" viewBox="0 0 48 48" fill="none" xmlns="http://www.w3.org/2000/svg">
<mask id="path-1-inside-1_4_1273" fill="white">
<path d="M0 10C0 4.47715 4.47715 0 10 0H38C43.5229 0 48 4.47715 48 10V38C48 43.5229 43.5228 48 38 48H10C4.47715 48 0 43.5228 0 38V10Z"/>
</mask>
<path d="M0 10C0 4.47715 4.47715 0 10 0H38C43.5229 0 48 4.47715 48 10V38C48 43.5229 43.5228 48 38 48H10C4.47715 48 0 43.5228 0 38V10Z" fill="#18181B"/>
<path d="M10 0V0.666667H38V0V-0.666667H10V0ZM48 10H47.3333V38H48H48.6667V10H48ZM38 48V47.3333H10V48V48.6667H38V48ZM0 38H0.666667V10H0H-0.666667V38H0ZM10 48V47.3333C4.84534 47.3333 0.666667 43.1547 0.666667 38H0H-0.666667C-0.666667 43.891 4.10896 48.6667 10 48.6667V48ZM48 38H47.3333C47.3333 43.1547 43.1547 47.3333 38 47.3333V48V48.6667C43.891 48.6667 48.6667 43.891 48.6667 38H48ZM38 0V0.666667C43.1547 0.666667 47.3333 4.84534 47.3333 10H48H48.6667C48.6667 4.10896 43.891 -0.666667 38 -0.666667V0ZM10 0V-0.666667C4.10896 -0.666667 -0.666667 4.10896 -0.666667 10H0H0.666667C0.666667 4.84534 4.84534 0.666667 10 0.666667V0Z" fill="white" fill-opacity="0.05" mask="url(#path-1-inside-1_4_1273)"/>
<path d="M21 19.5L28 24L21 28.5V19.5Z" fill="white" stroke="white" stroke-linecap="round" stroke-linejoin="round"/>
</svg>
