<svg width="56" height="18" viewBox="0 0 56 18" fill="none" xmlns="http://www.w3.org/2000/svg">
<g clip-path="url(#clip0_4_1293)">
<path d="M8.25 3.52652C8.24985 3.42206 8.21876 3.31998 8.16065 3.23316C8.10254 3.14635 8.02001 3.0787 7.92349 3.03874C7.82697 2.99878 7.72077 2.98831 7.61831 3.00865C7.51584 3.02899 7.42169 3.07923 7.34775 3.15302L4.80975 5.69027C4.7118 5.7888 4.59528 5.86692 4.46692 5.92009C4.33856 5.97326 4.20093 6.00043 4.062 6.00002H2.25C2.05109 6.00002 1.86032 6.07904 1.71967 6.21969C1.57902 6.36034 1.5 6.55111 1.5 6.75002V11.25C1.5 11.4489 1.57902 11.6397 1.71967 11.7804C1.86032 11.921 2.05109 12 2.25 12H4.062C4.20093 11.9996 4.33856 12.0268 4.46692 12.08C4.59528 12.1331 4.7118 12.2112 4.80975 12.3098L7.347 14.8478C7.42095 14.9219 7.51523 14.9723 7.61789 14.9928C7.72056 15.0133 7.82699 15.0028 7.92369 14.9627C8.0204 14.9226 8.10303 14.8548 8.16112 14.7677C8.21921 14.6806 8.25015 14.5782 8.25 14.4735V3.52652Z" stroke="#9F9FA9" stroke-width="1.5" stroke-linecap="round" stroke-linejoin="round"/>
<path d="M12 6.75C12.4868 7.39911 12.75 8.18861 12.75 9C12.75 9.81139 12.4868 10.6009 12 11.25" stroke="#9F9FA9" stroke-width="1.5" stroke-linecap="round" stroke-linejoin="round"/>
<path d="M14.5229 13.7731C15.1498 13.1463 15.647 12.4021 15.9862 11.5832C16.3254 10.7642 16.5 9.88648 16.5 9.00005C16.5 8.11362 16.3254 7.23587 15.9862 6.41692C15.647 5.59797 15.1498 4.85385 14.5229 4.22705" stroke="#9F9FA9" stroke-width="1.5" stroke-linecap="round" stroke-linejoin="round"/>
</g>
<path d="M47 9.75C47.4142 9.75 47.75 9.41421 47.75 9C47.75 8.58579 47.4142 8.25 47 8.25C46.5858 8.25 46.25 8.58579 46.25 9C46.25 9.41421 46.5858 9.75 47 9.75Z" stroke="#9F9FA9" stroke-width="1.5" stroke-linecap="round" stroke-linejoin="round"/>
<path d="M52.25 9.75C52.6642 9.75 53 9.41421 53 9C53 8.58579 52.6642 8.25 52.25 8.25C51.8358 8.25 51.5 8.58579 51.5 9C51.5 9.41421 51.8358 9.75 52.25 9.75Z" stroke="#9F9FA9" stroke-width="1.5" stroke-linecap="round" stroke-linejoin="round"/>
<path d="M41.75 9.75C42.1642 9.75 42.5 9.41421 42.5 9C42.5 8.58579 42.1642 8.25 41.75 8.25C41.3358 8.25 41 8.58579 41 9C41 9.41421 41.3358 9.75 41.75 9.75Z" stroke="#9F9FA9" stroke-width="1.5" stroke-linecap="round" stroke-linejoin="round"/>
<defs>
<clipPath id="clip0_4_1293">
<rect width="18" height="18" fill="white"/>
</clipPath>
</defs>
</svg>
