<svg width="1343" height="44" viewBox="0 0 1343 44" fill="none" xmlns="http://www.w3.org/2000/svg">
<mask id="path-1-inside-1_4_1095" fill="white">
<path d="M571.333 22C571.333 9.84974 581.183 0 593.333 0C605.484 0 615.333 9.84974 615.333 22C615.333 34.1503 605.484 44 593.333 44C581.183 44 571.333 34.1503 571.333 22Z"/>
</mask>
<path d="M593.333 44V43.3333C581.551 43.3333 572 33.7821 572 22H571.333H570.667C570.667 34.5185 580.815 44.6667 593.333 44.6667V44ZM615.333 22H614.667C614.667 33.7821 605.115 43.3333 593.333 43.3333V44V44.6667C605.852 44.6667 616 34.5185 616 22H615.333ZM593.333 0V0.666667C605.115 0.666667 614.667 10.2179 614.667 22H615.333H616C616 9.48155 605.852 -0.666667 593.333 -0.666667V0ZM593.333 0V-0.666667C580.815 -0.666667 570.667 9.48155 570.667 22H571.333H572C572 10.2179 581.551 0.666667 593.333 0.666667V0Z" fill="white" fill-opacity="0.1" mask="url(#path-1-inside-1_4_1095)"/>
<path d="M595.833 27L590.833 22L595.833 17" stroke="white" stroke-width="1.66667" stroke-linecap="round" stroke-linejoin="round"/>
<path d="M645.833 22C645.833 19.5147 647.848 17.5 650.333 17.5C652.819 17.5 654.833 19.5147 654.833 22C654.833 24.4853 652.819 26.5 650.333 26.5C647.848 26.5 645.833 24.4853 645.833 22Z" fill="#2B7FFF"/>
<path d="M661.333 22C661.333 20.3431 662.676 19 664.333 19C665.99 19 667.333 20.3431 667.333 22C667.333 23.6569 665.99 25 664.333 25C662.676 25 661.333 23.6569 661.333 22Z" fill="white" fill-opacity="0.2"/>
<path d="M675.333 22C675.333 20.3431 676.676 19 678.333 19C679.99 19 681.333 20.3431 681.333 22C681.333 23.6569 679.99 25 678.333 25C676.676 25 675.333 23.6569 675.333 22Z" fill="white" fill-opacity="0.2"/>
<path d="M689.333 22C689.333 20.3431 690.676 19 692.333 19C693.99 19 695.333 20.3431 695.333 22C695.333 23.6569 693.99 25 692.333 25C690.676 25 689.333 23.6569 689.333 22Z" fill="white" fill-opacity="0.2"/>
<mask id="path-8-inside-2_4_1095" fill="white">
<path d="M727.333 22C727.333 9.84974 737.183 0 749.333 0C761.484 0 771.333 9.84974 771.333 22C771.333 34.1503 761.484 44 749.333 44C737.183 44 727.333 34.1503 727.333 22Z"/>
</mask>
<path d="M749.333 44V43.3333C737.551 43.3333 728 33.7821 728 22H727.333H726.667C726.667 34.5185 736.815 44.6667 749.333 44.6667V44ZM771.333 22H770.667C770.667 33.7821 761.115 43.3333 749.333 43.3333V44V44.6667C761.852 44.6667 772 34.5185 772 22H771.333ZM749.333 0V0.666667C761.115 0.666667 770.667 10.2179 770.667 22H771.333H772C772 9.48155 761.852 -0.666667 749.333 -0.666667V0ZM749.333 0V-0.666667C736.815 -0.666667 726.667 9.48155 726.667 22H727.333H728C728 10.2179 737.551 0.666667 749.333 0.666667V0Z" fill="white" fill-opacity="0.1" mask="url(#path-8-inside-2_4_1095)"/>
<path d="M746.833 27L751.833 22L746.833 17" stroke="white" stroke-width="1.66667" stroke-linecap="round" stroke-linejoin="round"/>
</svg>
