<svg width="12" height="12" viewBox="0 0 12 12" fill="none" xmlns="http://www.w3.org/2000/svg">
<g clip-path="url(#clip0_4_670)">
<path d="M2 7.00001C1.90538 7.00033 1.81261 6.9738 1.73247 6.92349C1.65233 6.87319 1.58811 6.80118 1.54727 6.71583C1.50643 6.63048 1.49064 6.5353 1.50175 6.44133C1.51285 6.34737 1.55039 6.25848 1.61 6.18501L6.56 1.08501C6.59713 1.04215 6.64773 1.01318 6.70349 1.00287C6.75925 0.99256 6.81686 1.00151 6.86686 1.02826C6.91686 1.055 6.95629 1.09795 6.97866 1.15006C7.00104 1.20216 7.00503 1.26033 6.99 1.31501L6.03 4.32501C6.00169 4.40077 5.99218 4.48227 6.00229 4.56251C6.0124 4.64275 6.04183 4.71935 6.08804 4.78572C6.13426 4.85209 6.19588 4.90626 6.26763 4.94359C6.33939 4.98091 6.41912 5.00027 6.5 5.00001H10C10.0946 4.99968 10.1874 5.02621 10.2675 5.07652C10.3477 5.12682 10.4119 5.19883 10.4527 5.28418C10.4936 5.36953 10.5093 5.46471 10.4982 5.55868C10.4871 5.65264 10.4496 5.74153 10.39 5.81501L5.44 10.915C5.40287 10.9579 5.35227 10.9868 5.29651 10.9971C5.24074 11.0075 5.18313 10.9985 5.13313 10.9718C5.08313 10.945 5.0437 10.9021 5.02133 10.85C4.99895 10.7978 4.99496 10.7397 5.01 10.685L5.97 7.67501C5.9983 7.59924 6.00781 7.51775 5.9977 7.4375C5.98759 7.35726 5.95817 7.28066 5.91195 7.21429C5.86574 7.14792 5.80411 7.09375 5.73236 7.05643C5.66061 7.0191 5.58087 6.99974 5.5 7.00001H2Z" fill="#2B7FFF" stroke="#2B7FFF" stroke-linecap="round" stroke-linejoin="round"/>
</g>
<defs>
<clipPath id="clip0_4_670">
<rect width="12" height="12" fill="white"/>
</clipPath>
</defs>
</svg>
