<svg width="10" height="10" viewBox="0 0 10 10" fill="none" xmlns="http://www.w3.org/2000/svg">
<g clip-path="url(#clip0_4_893)">
<path d="M1.66668 5.83336C1.58784 5.83363 1.51053 5.81152 1.44375 5.7696C1.37697 5.72768 1.32345 5.66768 1.28941 5.59655C1.25538 5.52543 1.24222 5.4461 1.25148 5.3678C1.26073 5.2895 1.29201 5.21543 1.34168 5.15419L5.46668 0.904194C5.49763 0.868478 5.53979 0.844342 5.58626 0.835749C5.63273 0.827156 5.68074 0.834616 5.7224 0.856904C5.76407 0.879192 5.79693 0.914984 5.81557 0.958406C5.83422 1.00183 5.83755 1.0503 5.82502 1.09586L5.02502 3.60419C5.00143 3.66733 4.99351 3.73524 5.00193 3.80211C5.01035 3.86898 5.03488 3.93281 5.07339 3.98812C5.1119 4.04343 5.16326 4.08857 5.22305 4.11968C5.28284 4.15078 5.34929 4.16691 5.41668 4.16669H8.33335C8.4122 4.16643 8.4895 4.18853 8.55629 4.23045C8.62307 4.27237 8.67659 4.33238 8.71062 4.4035C8.74466 4.47463 8.75781 4.55395 8.74856 4.63225C8.73931 4.71056 8.70803 4.78463 8.65835 4.84586L4.53335 9.09586C4.50241 9.13158 4.46024 9.15571 4.41377 9.1643C4.36731 9.1729 4.3193 9.16544 4.27763 9.14315C4.23596 9.12086 4.20311 9.08507 4.18446 9.04165C4.16581 8.99823 4.16248 8.94976 4.17502 8.90419L4.97502 6.39586C4.99861 6.33273 5.00653 6.26481 4.9981 6.19794C4.98968 6.13107 4.96516 6.06724 4.92665 6.01193C4.88813 5.95662 4.83678 5.91148 4.77699 5.88038C4.71719 5.84927 4.65075 5.83314 4.58335 5.83336H1.66668Z" stroke="white" stroke-width="0.833333" stroke-linecap="round" stroke-linejoin="round"/>
</g>
<defs>
<clipPath id="clip0_4_893">
<rect width="10" height="10" fill="white"/>
</clipPath>
</defs>
</svg>
