<svg width="14" height="14" viewBox="0 0 14 14" fill="none" xmlns="http://www.w3.org/2000/svg">
<g clip-path="url(#clip0_4_714)">
<path d="M5.79663 9.04166C5.74455 8.83979 5.63933 8.65556 5.49191 8.50814C5.34449 8.36072 5.16025 8.25549 4.95838 8.20341L1.37963 7.28058C1.31857 7.26325 1.26483 7.22648 1.22657 7.17584C1.18831 7.1252 1.1676 7.06347 1.1676 7C1.1676 6.93653 1.18831 6.87479 1.22657 6.82415C1.26483 6.77352 1.31857 6.73674 1.37963 6.71941L4.95838 5.796C5.16018 5.74397 5.34437 5.63883 5.49178 5.49152C5.6392 5.34421 5.74446 5.1601 5.79663 4.95833L6.71946 1.37958C6.73662 1.31828 6.77335 1.26428 6.82407 1.22581C6.87478 1.18734 6.93668 1.16652 7.00034 1.16652C7.06399 1.16652 7.1259 1.18734 7.17661 1.22581C7.22732 1.26428 7.26406 1.31828 7.28121 1.37958L8.20346 4.95833C8.25554 5.16021 8.36077 5.34444 8.50819 5.49186C8.65561 5.63928 8.83984 5.7445 9.04171 5.79658L12.6205 6.71883C12.682 6.73581 12.7363 6.7725 12.775 6.82329C12.8136 6.87408 12.8346 6.93616 12.8346 7C12.8346 7.06384 12.8136 7.12591 12.775 7.1767C12.7363 7.22749 12.682 7.26419 12.6205 7.28116L9.04171 8.20341C8.83984 8.25549 8.65561 8.36072 8.50819 8.50814C8.36077 8.65556 8.25554 8.83979 8.20346 9.04166L7.28063 12.6204C7.26347 12.6817 7.22674 12.7357 7.17603 12.7742C7.12531 12.8127 7.06341 12.8335 6.99975 12.8335C6.9361 12.8335 6.8742 12.8127 6.82348 12.7742C6.77277 12.7357 6.73603 12.6817 6.71888 12.6204L5.79663 9.04166Z" stroke="#2B7FFF" stroke-width="1.16667" stroke-linecap="round" stroke-linejoin="round"/>
<path d="M11.6666 1.75V4.08333" stroke="#2B7FFF" stroke-width="1.16667" stroke-linecap="round" stroke-linejoin="round"/>
<path d="M12.8333 2.91667H10.5" stroke="#2B7FFF" stroke-width="1.16667" stroke-linecap="round" stroke-linejoin="round"/>
<path d="M2.33337 9.91667V11.0833" stroke="#2B7FFF" stroke-width="1.16667" stroke-linecap="round" stroke-linejoin="round"/>
<path d="M2.91667 10.5H1.75" stroke="#2B7FFF" stroke-width="1.16667" stroke-linecap="round" stroke-linejoin="round"/>
</g>
<defs>
<clipPath id="clip0_4_714">
<rect width="14" height="14" fill="white"/>
</clipPath>
</defs>
</svg>
