<svg width="10" height="10" viewBox="0 0 10 10" fill="none" xmlns="http://www.w3.org/2000/svg">
<g clip-path="url(#clip0_4_924)">
<path d="M5.34578 0.908279C5.23721 0.858757 5.11927 0.83313 4.99994 0.83313C4.88062 0.83313 4.76268 0.858757 4.65411 0.908279L1.08328 2.53328C1.00934 2.56588 0.946477 2.61928 0.902345 2.68697C0.858214 2.75466 0.834717 2.83372 0.834717 2.91453C0.834717 2.99533 0.858214 3.0744 0.902345 3.14209C0.946477 3.20978 1.00934 3.26318 1.08328 3.29578L4.65828 4.92494C4.76685 4.97447 4.88478 5.00009 5.00411 5.00009C5.12344 5.00009 5.24138 4.97447 5.34994 4.92494L8.92494 3.29995C8.99888 3.26734 9.06174 3.21395 9.10588 3.14626C9.15001 3.07856 9.1735 2.9995 9.1735 2.9187C9.1735 2.83789 9.15001 2.75883 9.10588 2.69114C9.06174 2.62344 8.99888 2.57005 8.92494 2.53745L5.34578 0.908279Z" stroke="#52525C" stroke-width="0.833333" stroke-linecap="round" stroke-linejoin="round"/>
<path d="M0.833375 5C0.833178 5.07969 0.85584 5.15777 0.898674 5.22498C0.941508 5.29218 1.00272 5.3457 1.07504 5.37917L4.65838 7.00833C4.76638 7.05724 4.88357 7.08254 5.00213 7.08254C5.12068 7.08254 5.23787 7.05724 5.34588 7.00833L8.92088 5.38333C8.99463 5.35018 9.05714 5.29629 9.10079 5.22822C9.14445 5.16016 9.16735 5.08086 9.16671 5" stroke="#52525C" stroke-width="0.833333" stroke-linecap="round" stroke-linejoin="round"/>
<path d="M0.833375 7.08337C0.833178 7.16307 0.85584 7.24115 0.898674 7.30835C0.941508 7.37556 1.00272 7.42907 1.07504 7.46254L4.65838 9.09171C4.76638 9.14061 4.88357 9.16591 5.00213 9.16591C5.12068 9.16591 5.23787 9.14061 5.34588 9.09171L8.92088 7.46671C8.99463 7.43356 9.05714 7.37966 9.10079 7.3116C9.14445 7.24353 9.16735 7.16423 9.16671 7.08337" stroke="#52525C" stroke-width="0.833333" stroke-linecap="round" stroke-linejoin="round"/>
</g>
<defs>
<clipPath id="clip0_4_924">
<rect width="10" height="10" fill="white"/>
</clipPath>
</defs>
</svg>
